<?xml version="1.0" encoding="utf-8"?>
<!-- Generator: Adobe Illustrator 24.1.0, SVG Export Plug-In . SVG Version: 6.00 Build 0)  -->
<svg version="1.1" id="Layer_1" xmlns="http://www.w3.org/2000/svg" xmlns:xlink="http://www.w3.org/1999/xlink" x="0px" y="0px"
	 viewBox="0 0 48 48" style="enable-background:new 0 0 48 48;" xml:space="preserve">
 <style type="text/css">
                      * {
                        fill:#44ad44;
                      }
                    </style><path d="M41.586,26.006l5.476-3.659c0.459-0.307,0.583-0.928,0.275-1.387L40.115,10.15c-0.307-0.459-0.927-0.583-1.387-0.276
	l-7.139,4.771l-5.503-1.095c-1.705-0.339-2.605-0.352-5.274,0.219l-4.401,0.876l-7.138-4.77c-0.46-0.307-1.08-0.183-1.387,0.276
	L0.663,20.959c-0.308,0.459-0.184,1.08,0.275,1.387l5.476,3.659l0.148,0.741c0.193,0.969,0.658,1.837,1.335,2.525L7.407,29.6
	c-1.375,0.919-1.746,2.786-0.827,4.162c0.768,1.149,2.196,1.585,3.448,1.164c0.076,0.365,0.217,0.722,0.437,1.05
	c0.768,1.149,2.196,1.585,3.449,1.164c0.076,0.365,0.217,0.723,0.437,1.052c0.768,1.149,2.196,1.585,3.448,1.164
	c0.076,0.365,0.217,0.721,0.436,1.05c0.919,1.375,2.785,1.746,4.161,0.827L24,40.161l1.577,1.054
	c1.375,0.919,3.241,0.547,4.161-0.828c0.218-0.326,0.355-0.681,0.432-1.043c1.26,0.44,2.706,0.005,3.481-1.155
	c0.219-0.328,0.357-0.685,0.434-1.05c1.252,0.422,2.681-0.014,3.45-1.164c0.219-0.328,0.359-0.685,0.435-1.05
	c1.252,0.421,2.681-0.014,3.449-1.164c0.446-0.667,0.605-1.466,0.449-2.252c-0.157-0.786-0.61-1.464-1.276-1.91l-0.49-0.327
	c0.677-0.688,1.143-1.556,1.336-2.524L41.586,26.006z M8.243,32.65c-0.307-0.459-0.183-1.082,0.275-1.388l4.989-3.333
	c0.459-0.306,1.082-0.181,1.387,0.275c0.306,0.459,0.182,1.08-0.275,1.386L9.63,32.925C9.171,33.231,8.548,33.106,8.243,32.65z
	 M12.128,34.864c-0.305-0.457-0.183-1.076,0.271-1.383l4.994-3.337c0.459-0.306,1.082-0.181,1.387,0.275
	c0.307,0.459,0.182,1.081-0.276,1.387l-4.988,3.333C13.056,35.445,12.433,35.321,12.128,34.864z M16.014,37.08
	c-0.307-0.459-0.183-1.082,0.275-1.388l4.989-3.333c0.459-0.306,1.082-0.181,1.387,0.275c0.306,0.458,0.182,1.079-0.274,1.385
	l-4.99,3.335C16.941,37.661,16.318,37.537,16.014,37.08z M21.285,39.569c-0.459,0.306-1.082,0.181-1.387-0.275
	c-0.305-0.457-0.183-1.075,0.27-1.382l4.995-3.338c0.459-0.306,1.082-0.181,1.387,0.275c0.307,0.459,0.182,1.081-0.276,1.387
	L21.285,39.569z M28.074,39.276c-0.306,0.458-0.929,0.582-1.387,0.276L25.8,38.958c0,0,1.736-1.16,1.801-1.204l0.195,0.13
	c0.001,0.001,0.002,0.002,0.003,0.003C28.257,38.195,28.381,38.817,28.074,39.276z M20.141,23.352l1.912-3.735l17.428,11.645
	c0.458,0.306,0.582,0.93,0.275,1.388c-0.306,0.458-0.929,0.582-1.387,0.276l-2.132-1.425c-0.458-0.305-1.08-0.183-1.387,0.276
	c-0.308,0.459-0.184,1.08,0.275,1.387l0.474,0.317c0.454,0.308,0.577,0.927,0.271,1.384c-0.306,0.458-0.929,0.582-1.387,0.276
	l-2.132-1.425c-0.458-0.305-1.08-0.183-1.387,0.276c-0.308,0.459-0.184,1.08,0.275,1.387l0.478,0.319
	c0.451,0.309,0.573,0.925,0.268,1.38c-0.306,0.458-0.929,0.582-1.387,0.276l-1.958-1.309c0.169-0.77,0.042-1.603-0.43-2.308
	c-0.768-1.149-2.196-1.585-3.448-1.164c-0.076-0.365-0.217-0.721-0.436-1.05c-0.768-1.149-2.196-1.585-3.449-1.164
	c-0.076-0.365-0.217-0.723-0.437-1.052c-0.768-1.149-2.196-1.585-3.448-1.164c-0.076-0.365-0.217-0.722-0.437-1.05
	c-0.919-1.375-2.785-1.746-4.161-0.827l-2.776,1.854c-0.563-0.442-0.956-1.054-1.097-1.764l-0.229-1.148
	c-0.052-0.26-0.204-0.489-0.425-0.636l-4.989-3.333l6.111-9.146l5.911,3.949c0,0-0.972,1.891-1.878,3.654
	c-0.972,1.891-0.323,4.318,1.729,5.386C16.819,26.128,19.169,25.243,20.141,23.352z M39.705,25.209l-0.229,1.148
	c-0.141,0.71-0.534,1.322-1.098,1.764l-16.248-10.85c-0.492-0.251-1.095-0.057-1.346,0.435c0,0-2.197,4.293-2.424,4.733
	c-0.467,0.908-1.621,1.394-2.692,0.864c-1.012-0.501-1.35-1.741-0.864-2.692c0.192-0.377,2.064-4.018,2.064-4.018l4.347-0.865
	c2.476-0.53,3.121-0.487,4.479-0.216l5.909,1.175c0.263,0.051,0.529-0.001,0.751-0.149l6.652-4.445l6.111,9.146l-4.989,3.333
	C39.909,24.72,39.757,24.949,39.705,25.209z"/>
</svg>
