<?xml version="1.0" encoding="UTF-8"?>
<!DOCTYPE svg PUBLIC "-//W3C//DTD SVG 1.1//EN" "http://www.w3.org/Graphics/SVG/1.1/DTD/svg11.dtd">
<!-- Creator: CorelDRAW -->
<svg xmlns="http://www.w3.org/2000/svg" xml:space="preserve" width="1.99999in" height="1.99999in" version="1.1" style="shape-rendering:geometricPrecision; text-rendering:geometricPrecision; image-rendering:optimizeQuality; fill-rule:evenodd; clip-rule:evenodd"
viewBox="0 0 2000 2000"
 xmlns:xlink="http://www.w3.org/1999/xlink">
 <style type="text/css">
                      * {
                        fill: #9904fe;
                      }
                    </style>

 <g id="Layer_x0020_1">
  <metadata id="CorelCorpID_0Corel-Layer"/>
  <path class="fil0" d="M1514 1478l0 -99c0,-13 7,-25 17,-33l230 -164 -37 -64 -147 101c-26,18 -63,-1 -63,-33l0 -364 -73 0 0 219c0,53 -80,53 -80,0l0 -169 -73 0 0 248c0,53 -80,53 -80,0l0 -205 -74 0 0 205c0,53 -80,53 -80,0l0 -162 -73 0 0 520 533 0zm-1367 25l0 -1288c0,-23 18,-40 40,-40l1144 0c22,0 40,17 40,40l0 541c7,-9 18,-14 30,-14l153 0c22,0 40,18 40,40l0 328 120 -83c19,-13 46,-7 57,13l77 133c10,18 5,41 -11,53l-243 173 0 79c20,0 41,1 52,14 11,13 11,20 9,32l-39 267c-3,20 -20,34 -40,34l-652 0c-20,0 -37,-14 -40,-34l-15 -104 -538 0c-101,0 -183,-81 -184,-184zm247 -1248l-167 0 0 1096c55,-38 103,-33 167,-33l0 -1063zm897 537l0 -537 -817 0 0 1063 427 0 0 -245c-166,11 -306,-121 -306,-286 0,-159 129,-288 287,-288 179,0 314,161 284,336l42 0c0,-50 48,-43 83,-43zm-390 606l-570 0c-58,0 -104,47 -104,105 0,57 46,104 104,104l526 0 -12 -83c-3,-24 15,-46 40,-46l16 0 0 -80zm183 -561c32,-130 -66,-258 -202,-258 -114,0 -207,93 -207,207 0,122 104,218 226,207l0 -75c0,-22 18,-40 40,-40l113 0c0,-20 11,-36 30,-41zm-126 908l584 0 27 -187 -638 0 27 187z"/>
 </g>
</svg>
